<svg xmlns="http://www.w3.org/2000/svg" width="100" height="78" fill="none"><path fill="#1E2E36" d="M75.897 41.661H24.103a4.511 4.511 0 0 1-4.506-4.506V4.63A4.511 4.511 0 0 1 24.103.124h51.794a4.512 4.512 0 0 1 4.506 4.507v32.524a4.511 4.511 0 0 1-4.506 4.506ZM24.103 2.468A2.165 2.165 0 0 0 21.94 4.63v32.524a2.165 2.165 0 0 0 2.163 2.162h51.794a2.165 2.165 0 0 0 2.162-2.162V4.63a2.165 2.165 0 0 0-2.162-2.163H24.103Z"/><path fill="#1E2E36" d="M75.897 70.893H24.103a4.511 4.511 0 0 1-4.506-4.507V43.824a4.511 4.511 0 0 1 4.506-4.506h51.794a4.512 4.512 0 0 1 4.506 4.506v22.562a4.511 4.511 0 0 1-4.506 4.507ZM24.103 41.66a2.165 2.165 0 0 0-2.163 2.163v22.562a2.165 2.165 0 0 0 2.163 2.163h51.794a2.165 2.165 0 0 0 2.162-2.163V43.824a2.165 2.165 0 0 0-2.162-2.163H24.103Z"/><path fill="#1E2E36" d="M95.493 70.893H82.566a4.511 4.511 0 0 1-4.506-4.507V26.844a4.511 4.511 0 0 1 4.506-4.506h12.927A4.512 4.512 0 0 1 100 26.844v39.542a4.512 4.512 0 0 1-4.507 4.507ZM82.566 24.68a2.165 2.165 0 0 0-2.163 2.163v39.542a2.165 2.165 0 0 0 2.163 2.163h12.927a2.165 2.165 0 0 0 2.163-2.163V26.844a2.165 2.165 0 0 0-2.163-2.163H82.566ZM17.434 70.893H4.507A4.512 4.512 0 0 1 0 66.386V26.844a4.512 4.512 0 0 1 4.506-4.506h12.928a4.512 4.512 0 0 1 4.506 4.506v39.542a4.511 4.511 0 0 1-4.506 4.507ZM4.506 24.68a2.165 2.165 0 0 0-2.162 2.163v39.542a2.165 2.165 0 0 0 2.162 2.163h12.928a2.165 2.165 0 0 0 2.162-2.163V26.844a2.165 2.165 0 0 0-2.162-2.163H4.506Z"/><path fill="#1E2E36" d="M79.231 56.277H20.77a1.172 1.172 0 0 1 0-2.344H79.23a1.172 1.172 0 0 1 0 2.344ZM10.97 77.876a4.22 4.22 0 0 1-4.102-3.205l-1.163-4.667A1.172 1.172 0 0 1 6.84 68.55h8.257a1.172 1.172 0 0 1 1.137 1.455l-1.163 4.667a4.22 4.22 0 0 1-4.102 3.205Zm-2.629-6.983.801 3.211a1.884 1.884 0 0 0 3.655 0l.801-3.211H8.341ZM89.03 77.876a4.22 4.22 0 0 1-4.102-3.204l-1.164-4.668a1.172 1.172 0 0 1 1.137-1.455h8.257a1.172 1.172 0 0 1 1.137 1.455l-1.164 4.668a4.22 4.22 0 0 1-4.101 3.204ZM86.4 70.893l.801 3.211a1.884 1.884 0 0 0 3.655 0l.801-3.211h-5.257Z"/></svg>