<svg xmlns="http://www.w3.org/2000/svg" width="82" height="100" fill="none"><path fill="#44C697" d="M75.685 33.76H6.315a1.172 1.172 0 0 1-1.172-1.172V8.248c0-.648.525-1.173 1.172-1.173h69.37c.647 0 1.172.525 1.172 1.172v24.341c0 .647-.525 1.172-1.172 1.172ZM7.487 31.416h67.026V9.42H7.487v21.997Z"/><path fill="#44C697" d="M70.307 33.76H11.693a1.172 1.172 0 0 1-1.171-1.172V13.625c0-.647.524-1.171 1.171-1.171h58.614c.647 0 1.172.524 1.172 1.171v18.963c0 .647-.525 1.172-1.172 1.172Zm-57.442-2.344h56.27V14.797h-56.27v16.62Z"/><path fill="#44C697" d="M37.466 33.76H15.228a4.712 4.712 0 0 1-4.707-4.706V17.16a4.712 4.712 0 0 1 4.707-4.707h22.238a4.712 4.712 0 0 1 4.706 4.707v11.894a4.711 4.711 0 0 1-4.706 4.706ZM15.228 14.797a2.365 2.365 0 0 0-2.363 2.363v11.894a2.365 2.365 0 0 0 2.363 2.363h22.238a2.365 2.365 0 0 0 2.362-2.363V17.16a2.365 2.365 0 0 0-2.362-2.363H15.228Z"/><path fill="#44C697" d="M66.773 33.76H44.534a4.712 4.712 0 0 1-4.706-4.706V17.16a4.712 4.712 0 0 1 4.706-4.707h22.239a4.712 4.712 0 0 1 4.706 4.707v11.894a4.711 4.711 0 0 1-4.706 4.706ZM44.534 14.797a2.365 2.365 0 0 0-2.362 2.363v11.894a2.365 2.365 0 0 0 2.362 2.363h22.239a2.365 2.365 0 0 0 2.362-2.363V17.16a2.365 2.365 0 0 0-2.362-2.363H44.534Z"/><path fill="#44C697" d="M76.533 92.925H5.467A4.712 4.712 0 0 1 .76 88.219V36.122a4.712 4.712 0 0 1 4.706-4.706h71.066a4.711 4.711 0 0 1 4.706 4.706V88.22a4.712 4.712 0 0 1-4.706 4.706ZM5.467 33.76a2.365 2.365 0 0 0-2.363 2.362V88.22a2.365 2.365 0 0 0 2.363 2.362h71.066a2.365 2.365 0 0 0 2.362-2.362V36.122a2.365 2.365 0 0 0-2.362-2.362H5.467ZM76.984 9.419H5.016A4.26 4.26 0 0 1 .76 5.164v-.909A4.26 4.26 0 0 1 5.016 0h71.968a4.26 4.26 0 0 1 4.255 4.255v.909a4.26 4.26 0 0 1-4.255 4.255ZM5.016 2.344a1.914 1.914 0 0 0-1.912 1.911v.909a1.914 1.914 0 0 0 1.912 1.911h71.968a1.914 1.914 0 0 0 1.912-1.911v-.909a1.914 1.914 0 0 0-1.912-1.911H5.016Z"/><path fill="#44C697" d="M76.984 100H5.016A4.26 4.26 0 0 1 .76 95.745v-.909a4.26 4.26 0 0 1 4.255-4.255h71.968a4.26 4.26 0 0 1 4.255 4.255v.909A4.26 4.26 0 0 1 76.984 100ZM5.016 92.925a1.914 1.914 0 0 0-1.912 1.911v.909a1.913 1.913 0 0 0 1.912 1.911h71.968a1.914 1.914 0 0 0 1.912-1.911v-.909a1.914 1.914 0 0 0-1.912-1.911H5.016Z"/></svg>