<svg xmlns="http://www.w3.org/2000/svg" width="68" height="100" fill="none"><path fill="#1E2E36" d="M66.765 100H1.235a1.172 1.172 0 0 1-1.172-1.172V1.172C.063.525.588 0 1.235 0h65.53c.647 0 1.172.525 1.172 1.172v97.656c0 .647-.525 1.172-1.172 1.172ZM2.407 97.656h63.186V2.344H2.407v95.312Z"/><path fill="#1E2E36" d="M34 71.494c-.648 0-1.172-.375-1.172-.838V.838C32.828.375 33.352 0 34 0c.647 0 1.171.375 1.171.838v69.818c0 .463-.524.838-1.171.838ZM34 100H1.235a1.172 1.172 0 0 1-1.172-1.172V84.575c0-.647.525-1.172 1.172-1.172H34c.647 0 1.172.525 1.172 1.172v14.253c0 .647-.525 1.172-1.172 1.172ZM2.407 97.656h30.42V85.747H2.408v11.91Z"/><path fill="#1E2E36" d="M34 85.747H1.235a1.172 1.172 0 0 1-1.172-1.172V70.322c0-.647.525-1.172 1.172-1.172H34c.647 0 1.172.525 1.172 1.172v14.253c0 .647-.525 1.172-1.172 1.172ZM2.407 83.403h30.42V71.494H2.408v11.91Z"/><path fill="#1E2E36" d="M19.267 78.62h-3.299a1.172 1.172 0 0 1 0-2.343h3.299a1.172 1.172 0 1 1 0 2.344ZM27.093 38.354a1.172 1.172 0 0 1-1.172-1.172v-2.87a1.172 1.172 0 0 1 2.344 0v2.87c0 .647-.524 1.172-1.172 1.172ZM40.906 52.607a1.172 1.172 0 0 1-1.172-1.172v-2.87a1.172 1.172 0 1 1 2.344 0v2.87c0 .647-.525 1.172-1.172 1.172ZM19.267 92.874h-3.299a1.172 1.172 0 0 1 0-2.344h3.299a1.172 1.172 0 0 1 0 2.344Z"/></svg>