<svg xmlns="http://www.w3.org/2000/svg" width="20" height="22" fill="none"><path fill="#fff" fill-rule="evenodd" d="M3 3.75c-.69 0-1.25.56-1.25 1.25v14c0 .69.56 1.25 1.25 1.25h14c.69 0 1.25-.56 1.25-1.25V5c0-.69-.56-1.25-1.25-1.25H3ZM.25 5A2.75 2.75 0 0 1 3 2.25h14A2.75 2.75 0 0 1 19.75 5v14A2.75 2.75 0 0 1 17 21.75H3A2.75 2.75 0 0 1 .25 19V5Z" clip-rule="evenodd"/><path fill="#fff" fill-rule="evenodd" d="M14 .25a.75.75 0 0 1 .75.75v4a.75.75 0 0 1-1.5 0V1A.75.75 0 0 1 14 .25ZM6 .25a.75.75 0 0 1 .75.75v4a.75.75 0 0 1-1.5 0V1A.75.75 0 0 1 6 .25ZM.25 9A.75.75 0 0 1 1 8.25h18a.75.75 0 0 1 0 1.5H1A.75.75 0 0 1 .25 9Z" clip-rule="evenodd"/></svg>