<svg xmlns="http://www.w3.org/2000/svg" width="100" height="88" fill="none"><path fill="#1E2E36" d="M93.545 36.075H6.455a1.172 1.172 0 0 1-1.172-1.172V9.43c0-.647.525-1.172 1.172-1.172h87.09c.647 0 1.172.525 1.172 1.172v25.472c0 .647-.525 1.172-1.172 1.172ZM7.627 33.73h84.746V10.603H7.627V33.73Z"/><path fill="#1E2E36" d="M93.545 61.547H6.455a1.172 1.172 0 0 1-1.172-1.172V34.903c0-.648.525-1.172 1.172-1.172h87.09c.647 0 1.172.524 1.172 1.172v25.472c0 .647-.525 1.172-1.172 1.172ZM7.627 59.203h84.746V36.075H7.627v23.128Z"/><path fill="#1E2E36" d="M93.545 87.019H6.455a1.172 1.172 0 0 1-1.172-1.172V60.375c0-.647.525-1.172 1.172-1.172h87.09c.647 0 1.172.524 1.172 1.172v25.472c0 .647-.525 1.172-1.172 1.172ZM7.627 84.675h84.746V61.547H7.627v23.128ZM52.192 23.339h-4.384a1.172 1.172 0 1 1 0-2.344h4.384a1.172 1.172 0 0 1 0 2.344ZM52.192 48.81h-4.384a1.172 1.172 0 0 1 0-2.343h4.384a1.172 1.172 0 0 1 0 2.344Z"/><path fill="#1E2E36" d="M52.192 74.283h-4.384a1.172 1.172 0 0 1 0-2.344h4.384a1.172 1.172 0 1 1 0 2.344ZM96.875 10.603H3.125A3.129 3.129 0 0 1 0 7.478V4.106A3.129 3.129 0 0 1 3.125.981h93.75A3.129 3.129 0 0 1 100 4.106v3.372a3.129 3.129 0 0 1-3.125 3.125ZM3.125 3.325c-.431 0-.78.35-.781.781v3.372c0 .43.35.78.781.78h93.75c.431 0 .78-.35.781-.78V4.106c0-.431-.35-.78-.781-.781H3.125Z"/></svg>