<svg xmlns="http://www.w3.org/2000/svg" width="22" height="22" fill="none"><path fill="#1E2E36" fill-rule="evenodd" d="M6.603.398C7.74.346 8.104.333 11 .333h-.003c2.898 0 3.26.013 4.398.065 1.135.052 1.91.232 2.59.495a5.213 5.213 0 0 1 1.89 1.23 5.235 5.235 0 0 1 1.23 1.89c.263.678.443 1.453.496 2.589.052 1.138.065 1.501.065 4.398s-.014 3.26-.065 4.398c-.053 1.135-.233 1.91-.495 2.588a5.236 5.236 0 0 1-1.231 1.89 5.22 5.22 0 0 1-1.889 1.23c-.678.265-1.454.444-2.59.496-1.138.052-1.5.065-4.397.065-2.897 0-3.26-.013-4.398-.065-1.135-.052-1.91-.231-2.59-.495a5.224 5.224 0 0 1-1.888-1.231 5.227 5.227 0 0 1-1.23-1.89C.63 17.308.45 16.533.398 15.397.346 14.26.333 13.897.333 11c0-2.897.014-3.26.065-4.398.05-1.135.23-1.91.495-2.59a5.236 5.236 0 0 1 1.231-1.889 5.223 5.223 0 0 1 1.89-1.23C4.692.63 5.467.45 6.603.398Zm4.043 1.858h-.602v-.003c-1.988.002-2.37.015-3.353.06-1.04.048-1.605.221-1.98.368a3.31 3.31 0 0 0-1.227.798 3.305 3.305 0 0 0-.799 1.227c-.146.376-.32.94-.367 1.98-.051 1.125-.061 1.46-.061 4.309s.01 3.186.061 4.31c.047 1.04.221 1.605.367 1.98.194.499.425.853.799 1.227.373.373.728.604 1.226.798.376.146.94.32 1.98.367 1.125.052 1.463.063 4.311.063s3.186-.011 4.31-.063c1.04-.047 1.605-.22 1.98-.367a3.3 3.3 0 0 0 1.227-.798c.373-.373.605-.728.798-1.225.146-.376.32-.94.367-1.98.051-1.125.063-1.463.063-4.31 0-2.846-.012-3.184-.063-4.308-.047-1.04-.221-1.605-.367-1.98a3.31 3.31 0 0 0-.798-1.227 3.299 3.299 0 0 0-1.226-.798c-.376-.146-.94-.32-1.98-.367-1.125-.051-1.463-.061-4.31-.061h-.356ZM5.523 11a5.477 5.477 0 1 1 10.955 0 5.477 5.477 0 0 1-10.955 0Zm9.034 0a3.556 3.556 0 1 0-7.111 0 3.556 3.556 0 0 0 7.11 0Zm.858-5.694a1.28 1.28 0 1 1 2.56 0 1.28 1.28 0 0 1-2.56 0Z" clip-rule="evenodd"/></svg>