<svg xmlns="http://www.w3.org/2000/svg" width="30" height="31" fill="none"><g fill="#1E2E36" fill-rule="evenodd" clip-path="url(#a)" clip-rule="evenodd"><path d="M11.25 26.438a.312.312 0 1 0 0 .624.312.312 0 0 0 0-.625Zm-2.188.312a2.187 2.187 0 1 1 4.375 0 2.187 2.187 0 0 1-4.374 0ZM25 26.438a.312.312 0 1 0 0 .624.312.312 0 0 0 0-.625Zm-2.188.312a2.187 2.187 0 1 1 4.375 0 2.187 2.187 0 0 1-4.375 0ZM.313 1.75c0-.518.42-.937.937-.937h5c.447 0 .832.315.92.753l1.1 5.497h20.48a.938.938 0 0 1 .92 1.113l-2 10.494a3.438 3.438 0 0 1-3.428 2.767H12.108a3.438 3.438 0 0 1-3.427-2.766L6.59 8.23a.932.932 0 0 1-.018-.089L5.482 2.688H1.25a.938.938 0 0 1-.938-.938Zm8.332 7.188 1.875 9.367a1.564 1.564 0 0 0 1.562 1.258H24.268a1.563 1.563 0 0 0 1.562-1.255v-.003l1.787-9.367H8.645Z"/></g><defs><clipPath id="a"><path fill="#fff" d="M0 .5h30v30H0z"/></clipPath></defs></svg>