<svg xmlns="http://www.w3.org/2000/svg" width="100" height="84" fill="none"><path fill="#1E2E36" d="M46.666 79.18H16.765a4.511 4.511 0 0 1-4.507-4.507V63.057a4.512 4.512 0 0 1 4.507-4.507h29.9a4.512 4.512 0 0 1 4.507 4.507v11.616a4.511 4.511 0 0 1-4.506 4.506ZM16.765 60.893a2.165 2.165 0 0 0-2.163 2.163v11.615a2.165 2.165 0 0 0 2.163 2.163h29.9a2.165 2.165 0 0 0 2.163-2.162V63.056a2.165 2.165 0 0 0-2.163-2.163h-29.9Z"/><path fill="#1E2E36" d="M10.095 79.18H4.506A4.512 4.512 0 0 1 0 74.672V52.436a4.512 4.512 0 0 1 4.506-4.507h5.59a4.511 4.511 0 0 1 4.506 4.507v22.237a4.511 4.511 0 0 1-4.507 4.506ZM4.506 50.272a2.165 2.165 0 0 0-2.162 2.163v22.237a2.165 2.165 0 0 0 2.162 2.162h5.59a2.165 2.165 0 0 0 2.162-2.162V52.436a2.165 2.165 0 0 0-2.163-2.163H4.506Z"/><path fill="#1E2E36" d="M86.57 70.037H13.43a1.172 1.172 0 0 1 0-2.344h73.14a1.172 1.172 0 0 1 0 2.344ZM46.666 60.894H16.765a4.511 4.511 0 0 1-4.507-4.506V38.54a4.511 4.511 0 0 1 4.507-4.507h29.9a4.511 4.511 0 0 1 4.507 4.507v17.847a4.511 4.511 0 0 1-4.506 4.506ZM16.765 36.378a2.165 2.165 0 0 0-2.163 2.162v17.847a2.165 2.165 0 0 0 2.163 2.163h29.9a2.165 2.165 0 0 0 2.163-2.163V38.541a2.165 2.165 0 0 0-2.163-2.163h-29.9Z"/><path fill="#1E2E36" d="M83.235 60.894h-29.9a4.511 4.511 0 0 1-4.507-4.506V38.54a4.511 4.511 0 0 1 4.506-4.507h29.901a4.511 4.511 0 0 1 4.507 4.507v17.847a4.511 4.511 0 0 1-4.507 4.506Zm-29.9-24.516a2.165 2.165 0 0 0-2.163 2.162v17.847a2.165 2.165 0 0 0 2.163 2.163h29.9a2.165 2.165 0 0 0 2.163-2.163V38.541a2.165 2.165 0 0 0-2.163-2.163h-29.9Z"/><path fill="#1E2E36" d="M83.235 79.18h-29.9a4.511 4.511 0 0 1-4.507-4.507V63.057a4.512 4.512 0 0 1 4.506-4.507h29.901a4.512 4.512 0 0 1 4.507 4.507v11.616a4.511 4.511 0 0 1-4.507 4.506Zm-29.9-18.286a2.165 2.165 0 0 0-2.163 2.163v11.615a2.165 2.165 0 0 0 2.163 2.163h29.9a2.165 2.165 0 0 0 2.163-2.162V63.056a2.165 2.165 0 0 0-2.163-2.163h-29.9Z"/><path fill="#1E2E36" d="M95.494 79.18h-5.59a4.512 4.512 0 0 1-4.506-4.507V52.436a4.512 4.512 0 0 1 4.507-4.507h5.589A4.511 4.511 0 0 1 100 52.436v22.237a4.511 4.511 0 0 1-4.506 4.506Zm-5.59-28.907a2.165 2.165 0 0 0-2.162 2.163v22.237a2.165 2.165 0 0 0 2.163 2.162h5.588a2.165 2.165 0 0 0 2.163-2.162V52.436a2.165 2.165 0 0 0-2.163-2.163h-5.588ZM52.74 60.894h-5.48a1.172 1.172 0 1 1 0-2.344h5.48a1.172 1.172 0 0 1 0 2.344ZM71.45 30.639h-42.9a1.172 1.172 0 0 1-1.172-1.172V1.625c0-.647.525-1.172 1.172-1.172h42.9c.648 0 1.172.525 1.172 1.172v27.842c0 .647-.524 1.172-1.171 1.172Zm-41.728-2.344h40.557V2.796H29.722v25.499Z"/><path fill="#1E2E36" d="M67.547 26.735H32.453a1.172 1.172 0 0 1-1.172-1.172V5.528c0-.647.525-1.171 1.172-1.171h35.094c.647 0 1.172.524 1.172 1.171v20.035c0 .648-.525 1.172-1.172 1.172Zm-33.922-2.344h32.75V6.701h-32.75v17.69Z"/><path fill="#1E2E36" d="M36.653 22.44a1.172 1.172 0 0 1-.828-2l6.026-6.027a1.172 1.172 0 0 1 1.657 0l3.657 3.657a1.172 1.172 0 0 1-1.657 1.657l-2.828-2.828-5.198 5.198c-.22.22-.518.343-.829.343Z"/><path fill="#1E2E36" d="M63.346 22.38c-.31 0-.609-.123-.828-.343l-4.279-4.28a5201.31 5201.31 0 0 1-4.813-4.814l-.752-.751-.71-.71-6.522 6.522a1.172 1.172 0 0 1-1.657-1.658l7.35-7.35a1.172 1.172 0 0 1 1.659.001 880.45 880.45 0 0 0 1.537 1.537l.753.752c1.603 1.605 3.207 3.21 4.813 4.813 1.425 1.427 2.85 2.854 4.278 4.28a1.172 1.172 0 0 1-.829 2Z"/><path fill="#1E2E36" d="M59.07 18.1c-.312 0-.61-.123-.83-.343l-4.814-4.814a1.172 1.172 0 0 1-.255-1.273 4.862 4.862 0 1 1 6.342 6.342c-.14.058-.292.088-.444.088Zm-3.352-6.18a5641.16 5641.16 0 0 0 3.545 3.546 2.52 2.52 0 1 0-3.545-3.545ZM92.699 83.547a3.078 3.078 0 0 1-2.992-2.337l-.728-2.92a1.172 1.172 0 0 1 1.138-1.455h5.164a1.172 1.172 0 0 1 1.138 1.456l-.728 2.919a3.078 3.078 0 0 1-2.992 2.337Zm-1.082-4.368.365 1.464a.74.74 0 0 0 1.434 0l.365-1.464h-2.164ZM7.301 83.547A3.078 3.078 0 0 1 4.31 81.21l-.729-2.92a1.172 1.172 0 0 1 1.138-1.455h5.165a1.172 1.172 0 0 1 1.137 1.456l-.728 2.919A3.078 3.078 0 0 1 7.3 83.547ZM6.22 79.179l.365 1.464a.74.74 0 0 0 1.434 0l.366-1.464H6.219Z"/></svg>