<svg aria-hidden="true" style="position: absolute; width: 0; height: 0; overflow: hidden;" version="1.1" xmlns="http://www.w3.org/2000/svg" xmlns:xlink="http://www.w3.org/1999/xlink">
<defs>
<symbol id="icon-armchairs" viewBox="0 0 41 32">
<path d="M31.137 17.092h-21.249c-1.021-0.001-1.847-0.828-1.849-1.848v-13.344c0.001-1.020 0.828-1.847 1.848-1.849h21.249c1.021 0.001 1.847 0.828 1.849 1.849v13.343c-0.001 1.021-0.828 1.847-1.849 1.849h-0zM9.888 1.012c-0.49 0-0.887 0.397-0.887 0.887v13.343c0.001 0.49 0.398 0.886 0.887 0.887h21.249c0.49-0.001 0.886-0.397 0.887-0.887v-13.343c-0-0.49-0.397-0.887-0.887-0.887h-21.249z"></path>
<path d="M31.137 29.084h-21.249c-1.021-0.001-1.848-0.828-1.849-1.849v-9.256c0.001-1.020 0.828-1.847 1.848-1.849h21.249c1.020 0.001 1.847 0.828 1.849 1.848v9.256c-0.001 1.021-0.828 1.848-1.849 1.849h-0zM9.888 17.091c-0.49 0-0.887 0.397-0.887 0.887v9.256c0 0.49 0.397 0.887 0.887 0.887h21.249c0.49-0.001 0.886-0.398 0.887-0.887v-9.256c-0-0.49-0.397-0.887-0.887-0.887h-21.249z"></path>
<path d="M39.177 29.084h-5.303c-1.021-0.001-1.848-0.828-1.849-1.849v-16.222c0.001-1.021 0.828-1.847 1.849-1.849h5.303c1.021 0.001 1.848 0.828 1.849 1.848v16.222c-0.001 1.021-0.828 1.848-1.849 1.849h-0zM33.873 10.125c-0.49 0-0.887 0.397-0.887 0.887v16.222c0 0.49 0.397 0.887 0.887 0.887h5.303c0.49-0 0.887-0.397 0.887-0.887v-16.222c-0-0.49-0.397-0.887-0.887-0.887h-5.303zM7.152 29.084h-5.303c-1.021-0.001-1.848-0.828-1.849-1.849v-16.222c0.001-1.020 0.828-1.847 1.848-1.849h5.304c1.020 0.001 1.847 0.828 1.849 1.848v16.222c-0.001 1.021-0.828 1.848-1.848 1.849h-0zM1.849 10.125c-0.49 0.001-0.886 0.398-0.887 0.887v16.222c0 0.49 0.397 0.887 0.887 0.887h5.304c0.49-0.001 0.886-0.398 0.887-0.887v-16.222c-0-0.49-0.397-0.887-0.887-0.887h-5.304z"></path>
<path d="M32.505 23.088h-23.984c-0.266 0-0.481-0.215-0.481-0.481s0.215-0.481 0.481-0.481h23.984c0.266 0 0.481 0.215 0.481 0.481s-0.215 0.481-0.481 0.481v0zM4.5 31.949c-0.001 0-0.002 0-0.002 0-0.808 0-1.487-0.554-1.678-1.303l-0.003-0.012-0.477-1.915c-0.009-0.035-0.014-0.075-0.014-0.116 0-0.265 0.215-0.48 0.48-0.481h3.388c0.266 0 0.481 0.215 0.481 0.481 0 0.041-0.005 0.081-0.015 0.119l0.001-0.003-0.477 1.915c-0.193 0.761-0.872 1.315-1.68 1.315-0.001 0-0.002 0-0.003 0h0zM3.422 29.084l0.329 1.317c0.087 0.339 0.39 0.585 0.75 0.585s0.663-0.246 0.749-0.58l0.001-0.005 0.329-1.317h-2.157zM36.525 31.949c-0.001 0-0.002 0-0.002 0-0.808 0-1.487-0.554-1.678-1.302l-0.003-0.012-0.478-1.915c-0.009-0.035-0.014-0.075-0.014-0.116 0-0.265 0.215-0.481 0.481-0.481h3.388c0.266 0 0.481 0.215 0.481 0.481 0 0.041-0.005 0.081-0.015 0.119l0.001-0.003-0.478 1.915c-0.193 0.761-0.872 1.314-1.68 1.314-0.001 0-0.001 0-0.002 0h0zM35.446 29.084l0.329 1.317c0.087 0.339 0.39 0.585 0.75 0.585s0.663-0.246 0.749-0.58l0.001-0.005 0.329-1.317h-2.157z"></path>
</symbol>
<symbol id="icon-arrow_left" viewBox="0 0 21 32">
<path d="M1.813 15.653c0-0.56 0.213-1.123 0.627-1.552l13.12-13.459c0.382-0.396 0.918-0.642 1.511-0.642s1.128 0.246 1.51 0.641l0.001 0.001c0.387 0.401 0.625 0.947 0.625 1.549s-0.238 1.148-0.626 1.55l0.001-0.001-11.608 11.912 11.608 11.909c0.387 0.401 0.625 0.947 0.625 1.549s-0.238 1.148-0.626 1.55l0.001-0.001c-0.382 0.396-0.918 0.642-1.511 0.642s-1.128-0.246-1.51-0.641l-0.001-0.001-13.12-13.459c-0.386-0.398-0.624-0.941-0.624-1.54 0-0.003 0-0.006 0-0.009v0z"></path>
</symbol>
<symbol id="icon-arrow_right" viewBox="0 0 19 32">
<path fill="#fff" style="fill: var(--color1, #fff)" d="M17.021 15.653c0 0.002 0 0.004 0 0.007 0 0.597-0.234 1.139-0.614 1.541l0.001-0.001-12.835 13.464c-0.37 0.396-0.896 0.643-1.48 0.643s-1.11-0.247-1.479-0.642l-0.001-0.001c-0.379-0.404-0.612-0.95-0.612-1.549s0.233-1.145 0.613-1.551l-0.001 0.001 11.36-11.912-11.36-11.912c-0.379-0.404-0.612-0.95-0.612-1.549s0.233-1.145 0.613-1.551l-0.001 0.001c0.37-0.396 0.896-0.642 1.479-0.642s1.108 0.246 1.478 0.641l0.001 0.001 12.84 13.459c0.408 0.427 0.611 0.989 0.611 1.552z"></path>
</symbol>
<symbol id="icon-arroww_top" viewBox="0 0 28 32">
<path fill="#fff" style="fill: var(--color1, #fff)" d="M15.479 1.004c-0.322-0.322-0.766-0.52-1.257-0.52s-0.935 0.199-1.257 0.52l-11.314 11.316c-0.322 0.322-0.521 0.767-0.521 1.258 0 0.982 0.796 1.778 1.778 1.778 0.491 0 0.935-0.199 1.257-0.52l10.057-10.059 10.057 10.057c0.322 0.322 0.766 0.52 1.257 0.52 0.982 0 1.778-0.796 1.778-1.778 0-0.491-0.199-0.936-0.521-1.258l-11.314-11.314zM16 30.546v-28.284h-3.556v28.284h3.556z"></path>
</symbol>
<symbol id="icon-beds" viewBox="0 0 26 32">
<path fill="#44c697" style="fill: var(--color2, #44c697)" d="M24.219 10.803h-22.198c-0.207 0-0.375-0.168-0.375-0.375v0-7.789c0-0.207 0.168-0.375 0.375-0.375h22.198c0.207 0 0.375 0.168 0.375 0.375v7.789c0 0.207-0.168 0.375-0.375 0.375zM2.396 10.053h21.448v-7.039h-21.448v7.039z"></path>
<path fill="#44c697" style="fill: var(--color2, #44c697)" d="M22.498 10.803h-18.756c-0.207-0-0.375-0.168-0.375-0.375v0-6.068c0-0.207 0.168-0.375 0.375-0.375h18.756c0.207 0 0.375 0.168 0.375 0.375v6.068c0 0.207-0.168 0.375-0.375 0.375zM4.117 10.053h18.006v-5.318h-18.006v5.318z"></path>
<path fill="#44c697" style="fill: var(--color2, #44c697)" d="M11.989 10.803h-7.116c-0.831-0.001-1.505-0.675-1.506-1.506v-3.806c0.001-0.832 0.675-1.505 1.506-1.506h7.116c0.831 0.001 1.505 0.675 1.506 1.506v3.806c-0.001 0.831-0.675 1.505-1.506 1.506h-0zM4.873 4.735c-0.417 0-0.756 0.339-0.756 0.756v3.806c0 0.417 0.339 0.756 0.756 0.756h7.116c0.417-0.001 0.755-0.339 0.756-0.756v-3.806c-0-0.417-0.338-0.756-0.756-0.756h-7.116z"></path>
<path fill="#44c697" style="fill: var(--color2, #44c697)" d="M21.367 10.803h-7.116c-0.831-0.001-1.505-0.675-1.506-1.506v-3.806c0.001-0.831 0.675-1.505 1.506-1.506h7.117c0.831 0.001 1.505 0.675 1.506 1.506v3.806c-0.001 0.831-0.675 1.505-1.506 1.506h-0zM14.251 4.735c-0.417 0.001-0.755 0.339-0.756 0.756v3.806c0 0.417 0.338 0.756 0.756 0.756h7.117c0.417-0.001 0.755-0.339 0.756-0.756v-3.806c-0-0.417-0.338-0.756-0.756-0.756h-7.117z"></path>
<path fill="#44c697" style="fill: var(--color2, #44c697)" d="M24.491 29.736h-22.741c-0.831-0.001-1.505-0.675-1.506-1.506v-16.671c0.001-0.831 0.675-1.505 1.506-1.506h22.741c0.831 0.001 1.505 0.675 1.506 1.506v16.671c-0.001 0.831-0.675 1.505-1.506 1.506h-0zM1.749 10.803c-0.417 0-0.756 0.338-0.756 0.756v16.671c0.001 0.417 0.339 0.755 0.756 0.756h22.741c0.417-0.001 0.755-0.339 0.756-0.756v-16.671c-0.001-0.417-0.339-0.755-0.756-0.756h-22.741zM24.635 3.014h-23.030c-0.752-0.001-1.361-0.61-1.362-1.361v-0.291c0.001-0.752 0.61-1.361 1.362-1.362h23.030c0.752 0.001 1.361 0.61 1.362 1.361v0.291c-0.001 0.752-0.61 1.361-1.361 1.362h-0zM1.605 0.75c-0.338 0-0.611 0.274-0.612 0.611v0.291c0.001 0.338 0.274 0.611 0.612 0.612h23.030c0.338-0 0.611-0.274 0.612-0.611v-0.291c-0.001-0.338-0.274-0.611-0.612-0.612h-23.030z"></path>
<path fill="#44c697" style="fill: var(--color2, #44c697)" d="M24.635 32h-23.030c-0.752-0.001-1.361-0.61-1.362-1.361v-0.291c0.001-0.752 0.61-1.361 1.361-1.362h23.030c0.752 0.001 1.361 0.61 1.362 1.361v0.291c-0.001 0.752-0.61 1.36-1.361 1.362h-0zM1.605 29.736c-0.338 0-0.611 0.274-0.612 0.611v0.291c0 0.338 0.274 0.611 0.612 0.612h23.030c0.338-0 0.611-0.274 0.612-0.611v-0.291c-0.001-0.338-0.274-0.611-0.612-0.612h-23.030z"></path>
</symbol>
<symbol id="icon-cabinets" viewBox="0 0 22 32">
<path d="M21.365 32h-20.97c-0.207 0-0.375-0.168-0.375-0.375v0-31.25c0-0.207 0.168-0.375 0.375-0.375h20.97c0.207 0 0.375 0.168 0.375 0.375v31.25c0 0.207-0.168 0.375-0.375 0.375zM0.77 31.25h20.22v-30.5h-20.22v30.5z"></path>
<path d="M10.88 22.878c-0.207 0-0.375-0.12-0.375-0.268v-22.342c0-0.148 0.168-0.268 0.375-0.268s0.375 0.12 0.375 0.268v22.342c0 0.148-0.168 0.268-0.375 0.268zM10.88 32h-10.485c-0.207 0-0.375-0.168-0.375-0.375v0-4.561c0-0.207 0.168-0.375 0.375-0.375h10.485c0.207 0 0.375 0.168 0.375 0.375v4.561c0 0.207-0.168 0.375-0.375 0.375zM0.77 31.25h9.734v-3.811h-9.734v3.811z"></path>
<path d="M10.88 27.439h-10.485c-0.207 0-0.375-0.168-0.375-0.375v0-4.561c0-0.207 0.168-0.375 0.375-0.375h10.485c0.207 0 0.375 0.168 0.375 0.375v4.561c0 0.207-0.168 0.375-0.375 0.375zM0.77 26.689h9.734v-3.811h-9.734v3.811z"></path>
<path d="M6.165 25.158h-1.056c-0.202-0.006-0.364-0.172-0.364-0.375s0.162-0.369 0.364-0.375h1.056c0.207 0 0.375 0.168 0.375 0.375s-0.168 0.375-0.375 0.375v0zM8.67 12.273c-0.207 0-0.375-0.168-0.375-0.375v0-0.918c0-0.207 0.168-0.375 0.375-0.375s0.375 0.168 0.375 0.375v0 0.918c0 0.207-0.168 0.375-0.375 0.375zM13.090 16.834c-0.207 0-0.375-0.168-0.375-0.375v0-0.918c0-0.207 0.168-0.375 0.375-0.375s0.375 0.168 0.375 0.375v0.918c0 0.207-0.168 0.375-0.375 0.375zM6.165 29.72h-1.056c-0.207 0-0.375-0.168-0.375-0.375s0.168-0.375 0.375-0.375h1.056c0.207 0 0.375 0.168 0.375 0.375s-0.168 0.375-0.375 0.375v0z"></path>
</symbol>
<symbol id="icon-calendar" viewBox="0 0 29 32">
<path fill="#fff" style="fill: var(--color1, #fff)" d="M4.364 5.455c-1.004 0-1.818 0.815-1.818 1.818v20.364c0 1.004 0.815 1.818 1.818 1.818h20.364c1.004 0 1.818-0.815 1.818-1.818v-20.364c0-1.004-0.815-1.818-1.818-1.818h-20.364zM0.364 7.273c0-2.209 1.791-4 4-4v0h20.364c2.209 0 4 1.791 4 4v0 20.364c0 2.209-1.791 4-4 4v0h-20.364c-2.209 0-4-1.791-4-4v0-20.364z"></path>
<path fill="#fff" style="fill: var(--color1, #fff)" d="M20.364 0.364c0.602 0 1.091 0.488 1.091 1.091v0 5.818c0 0.603-0.488 1.091-1.091 1.091s-1.091-0.488-1.091-1.091v0-5.818c0-0.603 0.488-1.091 1.091-1.091v0zM8.727 0.364c0.602 0 1.091 0.488 1.091 1.091v0 5.818c0 0.603-0.488 1.091-1.091 1.091s-1.091-0.488-1.091-1.091v0-5.818c0-0.603 0.488-1.091 1.091-1.091v0zM0.364 13.091c0-0.602 0.488-1.091 1.091-1.091v0h26.182c0.602 0 1.091 0.488 1.091 1.091s-0.488 1.091-1.091 1.091v0h-26.182c-0.603 0-1.091-0.488-1.091-1.091v0z"></path>
</symbol>
<symbol id="icon-dressers" viewBox="0 0 36 32">
<path d="M34.016 13.118h-31.669c-0.235 0-0.426-0.191-0.426-0.426v0-9.263c0-0.235 0.191-0.426 0.426-0.426h31.669c0.235 0 0.426 0.191 0.426 0.426v9.263c0 0.235-0.191 0.426-0.426 0.426zM2.773 12.265h30.817v-8.41h-30.817v8.41z"></path>
<path d="M34.016 22.381h-31.669c-0.235 0-0.426-0.191-0.426-0.426v0-9.263c0-0.236 0.191-0.426 0.426-0.426h31.669c0.235 0 0.426 0.191 0.426 0.426v9.263c0 0.235-0.191 0.426-0.426 0.426zM2.773 21.528h30.817v-8.41h-30.817v8.41z"></path>
<path d="M34.016 31.643h-31.669c-0.235 0-0.426-0.191-0.426-0.426v0-9.263c0-0.235 0.191-0.426 0.426-0.426h31.669c0.235 0 0.426 0.191 0.426 0.426v9.263c0 0.235-0.191 0.426-0.426 0.426zM2.773 30.791h30.817v-8.41h-30.817v8.41zM18.979 8.487h-1.594c-0.235 0-0.426-0.191-0.426-0.426s0.191-0.426 0.426-0.426h1.594c0.235 0 0.426 0.191 0.426 0.426s-0.191 0.426-0.426 0.426v0zM18.979 17.749h-1.594c-0.23-0.007-0.414-0.195-0.414-0.426s0.184-0.419 0.413-0.426h1.595c0.235 0 0.426 0.191 0.426 0.426s-0.191 0.426-0.426 0.426v0z"></path>
<path d="M18.979 27.012h-1.594c-0.235 0-0.426-0.191-0.426-0.426s0.191-0.426 0.426-0.426h1.594c0.235 0 0.426 0.191 0.426 0.426s-0.191 0.426-0.426 0.426v0zM35.227 3.856h-34.091c-0.627-0.001-1.136-0.509-1.136-1.136v-1.226c0.001-0.627 0.509-1.136 1.136-1.136h34.091c0.627 0.001 1.136 0.509 1.136 1.136v1.226c-0.001 0.627-0.509 1.136-1.136 1.136h-0zM1.136 1.209c-0.157 0-0.284 0.127-0.284 0.284v1.226c0 0.156 0.127 0.284 0.284 0.284h34.091c0.157 0 0.284-0.127 0.284-0.284v-1.226c0-0.157-0.127-0.284-0.284-0.284h-34.091z"></path>
</symbol>
<symbol id="icon-facebook" viewBox="0 0 16 32">
<path d="M10.305 31.651v-15.828h4.368l0.58-5.455h-4.95l0.007-2.729c0-1.423 0.135-2.185 2.177-2.185h2.732v-5.455h-4.368c-5.248 0-7.095 2.646-7.095 7.095v3.274h-3.273v5.455h3.273v15.825h6.548z"></path>
</symbol>
<symbol id="icon-instagram" viewBox="0 0 32 32">
<path d="M9.604 0.579c1.654-0.076 2.183-0.095 6.396-0.095h-0.004c4.215 0 4.742 0.019 6.397 0.095 1.651 0.076 2.778 0.337 3.767 0.72 1.076 0.41 1.993 1.019 2.748 1.788l0.001 0.001c0.769 0.756 1.378 1.673 1.771 2.697l0.018 0.052c0.383 0.986 0.644 2.113 0.721 3.766 0.076 1.655 0.095 2.183 0.095 6.397s-0.020 4.742-0.095 6.397c-0.077 1.651-0.339 2.778-0.72 3.764-0.412 1.076-1.021 1.993-1.789 2.748l-0.001 0.001c-0.756 0.77-1.672 1.378-2.696 1.772l-0.052 0.018c-0.986 0.385-2.115 0.646-3.767 0.721-1.655 0.076-2.182 0.095-6.396 0.095s-4.742-0.019-6.397-0.095c-1.651-0.076-2.778-0.336-3.767-0.72-1.075-0.412-1.991-1.021-2.745-1.789l-0.001-0.001c-0.769-0.756-1.378-1.673-1.772-2.697l-0.018-0.052c-0.383-0.986-0.644-2.113-0.72-3.766-0.076-1.654-0.095-2.182-0.095-6.396s0.020-4.742 0.095-6.397c0.073-1.651 0.335-2.778 0.72-3.767 0.412-1.075 1.021-1.992 1.789-2.747l0.001-0.001c0.756-0.77 1.673-1.378 2.697-1.772l0.052-0.018c0.986-0.383 2.113-0.644 3.766-0.72zM15.485 3.281h-0.876v-0.004c-2.892 0.003-3.447 0.022-4.877 0.087-1.513 0.070-2.335 0.321-2.88 0.535-0.7 0.263-1.296 0.658-1.784 1.16l-0.001 0.001c-0.503 0.489-0.899 1.085-1.151 1.752l-0.011 0.033c-0.212 0.547-0.465 1.367-0.534 2.88-0.074 1.636-0.089 2.124-0.089 6.268s0.015 4.634 0.089 6.269c0.068 1.513 0.321 2.335 0.534 2.88 0.282 0.726 0.618 1.241 1.162 1.785 0.543 0.543 1.059 0.879 1.783 1.161 0.547 0.212 1.367 0.465 2.88 0.534 1.636 0.076 2.128 0.092 6.271 0.092s4.634-0.016 6.269-0.092c1.513-0.068 2.335-0.32 2.88-0.534 0.7-0.262 1.296-0.658 1.784-1.16l0.001-0.001c0.543-0.543 0.88-1.059 1.161-1.782 0.212-0.547 0.465-1.367 0.534-2.88 0.074-1.636 0.092-2.128 0.092-6.269 0-4.14-0.017-4.631-0.092-6.266-0.068-1.513-0.321-2.335-0.534-2.88-0.263-0.7-0.658-1.296-1.16-1.784l-0.001-0.001c-0.488-0.503-1.084-0.898-1.75-1.15l-0.033-0.011c-0.547-0.212-1.367-0.465-2.88-0.534-1.636-0.074-2.128-0.089-6.269-0.089h-0.518zM8.033 16c0-4.4 3.567-7.967 7.967-7.967s7.967 3.567 7.967 7.967v0c0 4.4-3.567 7.967-7.967 7.967s-7.967-3.567-7.967-7.967v0zM21.174 16c0-0.026 0.001-0.056 0.001-0.087 0-2.857-2.316-5.172-5.172-5.172s-5.172 2.316-5.172 5.172c0 0.030 0 0.061 0.001 0.091l-0-0.005c0.069 2.803 2.357 5.050 5.171 5.050s5.102-2.246 5.171-5.043l0-0.006zM22.422 7.718c0-1.028 0.834-1.862 1.862-1.862s1.862 0.834 1.862 1.862v0c0 1.028-0.834 1.862-1.862 1.862s-1.862-0.834-1.862-1.862v0z"></path>
</symbol>
<symbol id="icon-kitchen" viewBox="0 0 34 32">
<path d="M23.077 30.002h-12.111c-0.22 0-0.399-0.179-0.399-0.399v0-9.275c0-0.221 0.179-0.399 0.399-0.399h12.111c0.22 0 0.399 0.178 0.399 0.399v9.275c0 0.221-0.179 0.399-0.399 0.399zM11.365 29.204h11.313v-8.477h-11.313v8.477z"></path>
<path d="M23.077 31.709h-12.111c-0.22 0-0.399-0.179-0.399-0.399v0-1.707c0-0.221 0.179-0.399 0.399-0.399h12.111c0.22 0 0.399 0.178 0.399 0.399v1.707c0 0.22-0.179 0.399-0.399 0.399zM11.365 30.911h11.313v-0.909h-11.313v0.909zM23.077 20.727h-12.111c-0.22 0-0.399-0.179-0.399-0.399v0-3.933c0-0.22 0.179-0.399 0.399-0.399h12.111c0.22 0 0.399 0.179 0.399 0.399v3.933c0 0.22-0.179 0.399-0.399 0.399zM11.365 19.929h11.313v-3.135h-11.313v3.135z"></path>
<path d="M17.021 19.655c-0.714 0-1.293-0.579-1.293-1.293s0.579-1.293 1.293-1.293v0c0.714 0 1.293 0.579 1.293 1.293s-0.579 1.293-1.293 1.293v0zM17.021 17.867c-0.273 0-0.495 0.222-0.495 0.495s0.222 0.495 0.495 0.495v0c0.273 0 0.495-0.222 0.495-0.495s-0.222-0.495-0.495-0.495v0zM20.38 19.655c-0.714 0-1.293-0.579-1.293-1.293s0.579-1.293 1.293-1.293v0c0.714 0 1.293 0.579 1.293 1.293s-0.579 1.293-1.293 1.293v0zM20.38 17.867c-0.273 0-0.495 0.222-0.495 0.495s0.222 0.495 0.495 0.495v0c0.273 0 0.495-0.222 0.495-0.495s-0.222-0.495-0.495-0.495v0zM13.662 19.655c-0.714 0-1.293-0.579-1.293-1.293s0.579-1.293 1.293-1.293v0c0.714 0 1.293 0.579 1.293 1.293s-0.579 1.293-1.293 1.293v0zM13.662 17.867c-0.273 0-0.495 0.222-0.495 0.495s0.222 0.495 0.495 0.495v0c0.273 0 0.495-0.222 0.495-0.495s-0.222-0.495-0.495-0.495v0zM20.735 23.059h-7.427c-0.518 0-0.938-0.42-0.938-0.938s0.42-0.938 0.938-0.938h7.427c0 0 0 0 0 0 0.518 0 0.938 0.42 0.938 0.938s-0.42 0.938-0.938 0.938h-0.001zM13.308 21.981c-0.077 0-0.14 0.063-0.14 0.14s0.063 0.14 0.14 0.14h7.427c0 0 0 0 0 0 0.077 0 0.14-0.063 0.14-0.14s-0.063-0.14-0.14-0.14h-7.428z"></path>
<path d="M20.38 28.728h-6.718c-0.22 0-0.399-0.179-0.399-0.399v0-5.669c0-0.22 0.179-0.399 0.399-0.399h6.718c0.22 0 0.399 0.179 0.399 0.399v5.669c0 0.22-0.179 0.399-0.399 0.399zM14.061 27.93h5.92v-4.871h-5.92v4.871zM14.363 16.795c-0.22 0-0.399-0.179-0.399-0.399v0-0.99c0-0.22 0.179-0.399 0.399-0.399s0.399 0.179 0.399 0.399v0 0.99c0 0.221-0.178 0.399-0.399 0.399zM16.254 16.795c-0.22 0-0.399-0.179-0.399-0.399v0-0.591h-0.532c-0.22 0-0.399-0.179-0.399-0.399s0.179-0.399 0.399-0.399h0.931c0.22 0 0.399 0.179 0.399 0.399v0.99c0 0.221-0.179 0.399-0.399 0.399zM12.472 16.795c-0.22 0-0.399-0.179-0.399-0.399v0-0.99c0-0.22 0.179-0.399 0.399-0.399h0.931c0.22 0 0.399 0.179 0.399 0.399s-0.179 0.399-0.399 0.399h-0.532v0.591c0 0.221-0.178 0.399-0.399 0.399zM19.68 16.795c-0.22 0-0.399-0.179-0.399-0.399v0-0.99c0.006-0.215 0.183-0.387 0.399-0.387s0.392 0.172 0.399 0.387v0.991c0 0.221-0.178 0.399-0.399 0.399zM17.789 16.795c-0.22 0-0.399-0.179-0.399-0.399v0-0.99c0-0.22 0.178-0.399 0.399-0.399h0.931c0.22 0 0.399 0.179 0.399 0.399s-0.179 0.399-0.399 0.399h-0.532v0.591c0 0.221-0.178 0.399-0.399 0.399zM21.571 16.795c-0.22 0-0.399-0.179-0.399-0.399v0-0.591h-0.532c-0.22 0-0.399-0.179-0.399-0.399s0.179-0.399 0.399-0.399h0.931c0.22 0 0.399 0.179 0.399 0.399v0.99c0 0.221-0.179 0.399-0.399 0.399zM25.005 18.247h-0.714c-0.22 0-0.399-0.179-0.399-0.399s0.179-0.399 0.399-0.399h0.714c0.22 0 0.399 0.179 0.399 0.399s-0.179 0.399-0.399 0.399v0z"></path>
<path d="M26.219 31.709h-3.142c-0.22 0-0.399-0.179-0.399-0.399v0-14.914c0-0.221 0.179-0.399 0.399-0.399h3.142c0.22 0 0.399 0.179 0.399 0.399v14.914c0 0.221-0.179 0.399-0.399 0.399zM23.476 30.911h2.344v-14.116h-2.344v14.116z"></path>
<path d="M33.644 24.252h-7.425c-0.22-0-0.399-0.179-0.399-0.399v0-7.457c0-0.22 0.178-0.399 0.399-0.399h7.425c0.22 0 0.399 0.179 0.399 0.399v7.457c0 0.22-0.178 0.399-0.399 0.399zM26.618 23.454h6.627v-6.659h-6.627v6.659z"></path>
<path d="M30.888 18.247h-1.914c-0.22 0-0.399-0.179-0.399-0.399s0.179-0.399 0.399-0.399h1.913c0.22 0 0.399 0.179 0.399 0.399s-0.179 0.399-0.399 0.399v0zM6.639 18.247h-1.914c-0.22 0-0.399-0.179-0.399-0.399s0.179-0.399 0.399-0.399h1.913c0.22 0 0.399 0.179 0.399 0.399s-0.179 0.399-0.399 0.399v0zM33.644 31.709h-7.425c-0.22-0-0.399-0.179-0.399-0.399v0-7.457c0-0.22 0.178-0.399 0.399-0.399h7.425c0.22 0 0.399 0.178 0.399 0.399v7.457c0 0.22-0.178 0.399-0.399 0.399zM26.618 30.911h6.627v-6.659h-6.627v6.659z"></path>
<path d="M30.888 25.704h-1.914c-0.22 0-0.399-0.179-0.399-0.399s0.179-0.399 0.399-0.399h1.913c0.22 0 0.399 0.179 0.399 0.399s-0.179 0.399-0.399 0.399v0zM5.682 31.709h-5.283c-0.22 0-0.399-0.179-0.399-0.399v0-10.982c0-0.22 0.179-0.399 0.399-0.399h5.283c0.22 0 0.399 0.178 0.399 0.399v10.982c0 0.22-0.179 0.399-0.399 0.399zM0.798 30.911h4.485v-10.184h-4.485v10.184z"></path>
<path d="M10.966 31.709h-5.283c-0.22 0-0.399-0.179-0.399-0.399v0-10.982c0-0.22 0.179-0.399 0.399-0.399h5.283c0.22 0 0.399 0.178 0.399 0.399v10.982c0 0.22-0.179 0.399-0.399 0.399zM6.081 30.911h4.485v-10.184h-4.485v10.184z"></path>
<path d="M6.944 26.882c-0.22-0-0.399-0.179-0.399-0.399v0-1.328c-0-0.003-0-0.008-0-0.012 0-0.22 0.179-0.399 0.399-0.399s0.399 0.179 0.399 0.399c0 0.004-0 0.008-0 0.012v-0.001 1.328c0 0.22-0.178 0.399-0.399 0.399zM4.421 26.882c-0.22 0-0.399-0.179-0.399-0.399v0-1.328c0-0.22 0.179-0.399 0.399-0.399s0.399 0.179 0.399 0.399v0 1.328c0 0.22-0.179 0.399-0.399 0.399zM10.966 20.727h-10.567c-0.22 0-0.399-0.179-0.399-0.399v0-3.933c0-0.22 0.179-0.399 0.399-0.399h10.567c0.22 0 0.399 0.179 0.399 0.399v3.933c0 0.22-0.179 0.399-0.399 0.399zM0.798 19.929h9.769v-3.135h-9.769v3.135zM22.627 8.435h-11.212c-0.468-0.001-0.848-0.38-0.849-0.849v-1.145c0.001-0.468 0.38-0.848 0.849-0.849h11.212c0.468 0.001 0.848 0.38 0.849 0.849v1.146c-0.001 0.468-0.38 0.848-0.849 0.849h-0zM11.415 6.39c0 0 0 0 0 0-0.028 0-0.051 0.023-0.051 0.051v1.146c0 0.028 0.023 0.051 0.051 0.051v0h11.212c0.028-0 0.051-0.023 0.051-0.051 0 0 0 0 0 0v0-1.145c0-0.028-0.023-0.051-0.051-0.051v0h-11.211z"></path>
<path d="M21.795 6.39h-9.548c-0.464-0-0.84-0.377-0.84-0.841 0-0.268 0.125-0.506 0.32-0.66l0.002-0.001 0.306-0.24c1.178-0.922 1.929-2.345 1.929-3.942 0-0.005 0-0.010-0-0.015v0.001c0-0.221 0.179-0.399 0.399-0.399h5.317c0.22 0 0.399 0.178 0.399 0.399 0 0.004-0 0.010-0 0.015 0 1.598 0.75 3.020 1.918 3.934l0.011 0.008 0.306 0.24c0.197 0.155 0.323 0.394 0.323 0.662 0 0.464-0.376 0.841-0.84 0.841-0 0-0 0-0 0v0zM14.749 1.089c-0.115 1.706-0.954 3.195-2.209 4.177l-0.013 0.010-0.306 0.24c-0.010 0.008-0.016 0.020-0.016 0.034 0 0.024 0.019 0.043 0.043 0.043h9.548c0.023-0 0.043-0.019 0.043-0.043 0-0.013-0.006-0.025-0.016-0.033l-0-0-0.307-0.24c-1.267-0.992-2.106-2.481-2.22-4.168l-0.001-0.018h-4.545zM32.408 8.435h-6.348c-0.552 0-1-0.448-1-1s0.448-1 1-1h6.348c0.552 0 1 0.448 1 1s-0.448 1-1 1v0zM26.060 7.233c-0.111 0-0.202 0.090-0.202 0.202s0.090 0.202 0.202 0.202v0h6.348c0.111 0 0.202-0.090 0.202-0.202s-0.090-0.202-0.202-0.202v0h-6.348zM7.982 8.435h-6.348c-0.552 0-1-0.448-1-1s0.448-1 1-1h6.349c0.552 0 1 0.448 1 1s-0.448 1-1 1v0zM1.634 7.233c-0.111 0-0.202 0.090-0.202 0.202s0.090 0.202 0.202 0.202v0h6.349c0.111 0 0.202-0.090 0.202-0.202s-0.090-0.202-0.202-0.202v0h-6.349z"></path>
<path d="M7.346 7.233h-1.623c-0.22 0-0.399-0.179-0.399-0.399v0-1.372c0-0.22 0.178-0.399 0.399-0.399h1.623c0.22 0 0.399 0.178 0.399 0.399v1.372c0 0.22-0.178 0.399-0.399 0.399zM6.122 6.435h0.825v-0.574h-0.825v0.574z"></path>
<path d="M7.728 5.861h-2.387c-0.22 0-0.399-0.179-0.399-0.399s0.179-0.399 0.399-0.399h2.388c0.22 0 0.399 0.179 0.399 0.399s-0.179 0.399-0.399 0.399v0zM3.893 7.233h-1.623c-0.22-0-0.398-0.179-0.398-0.399 0 0 0 0 0 0v0-1.372c0-0.22 0.178-0.399 0.399-0.399h1.623c0.221 0 0.399 0.178 0.399 0.399v1.372c0 0.22-0.178 0.399-0.399 0.399zM2.67 6.435h0.825v-0.574h-0.825v0.574z"></path>
<path d="M4.276 5.861h-2.387c-0.22 0-0.399-0.179-0.399-0.399s0.179-0.399 0.399-0.399h2.387c0.22 0 0.399 0.179 0.399 0.399s-0.179 0.399-0.399 0.399v0zM7.346 5.861h-1.623c-0.22 0-0.399-0.179-0.399-0.399v0-1.371c0-0.221 0.178-0.399 0.399-0.399h1.623c0.22 0 0.399 0.178 0.399 0.399v1.372c0 0.22-0.178 0.399-0.399 0.399zM6.122 5.064h0.825v-0.573h-0.825v0.574z"></path>
<path d="M7.728 4.49h-2.387c-0.22 0-0.399-0.179-0.399-0.399s0.179-0.399 0.399-0.399h2.388c0.215 0.006 0.387 0.183 0.387 0.399s-0.172 0.392-0.387 0.399h-0.001zM3.893 5.861h-1.623c-0.22-0-0.398-0.179-0.398-0.399 0 0 0 0 0 0v0-1.371c0-0.221 0.178-0.399 0.399-0.399h1.623c0.221 0 0.399 0.178 0.399 0.399v1.372c0 0.22-0.178 0.399-0.399 0.399zM2.67 5.064h0.825v-0.573h-0.825v0.574z"></path>
<path d="M4.276 4.49h-2.387c-0.22 0-0.399-0.179-0.399-0.399s0.179-0.399 0.399-0.399h2.387c0.003-0 0.008-0 0.012-0 0.22 0 0.399 0.179 0.399 0.399s-0.179 0.399-0.399 0.399c-0.004 0-0.008-0-0.012-0h0.001zM29.234 7.233c-1.422-0-2.575-1.153-2.575-2.575 0-0.508 0.147-0.981 0.401-1.38l-0.006 0.010c0.073-0.116 0.201-0.187 0.338-0.187h3.686c0.137 0 0.264 0.070 0.337 0.187 0.247 0.388 0.394 0.862 0.394 1.37 0 1.422-1.153 2.575-2.574 2.575h-0zM27.627 3.9c-0.107 0.222-0.17 0.483-0.17 0.758 0 0.981 0.796 1.777 1.777 1.777s1.777-0.796 1.777-1.777c0-0.275-0.063-0.536-0.174-0.768l0.005 0.011h-3.215z"></path>
<path d="M29.197 3.9c-0.22 0-0.399-0.179-0.399-0.399v0-2.567c0-0.22 0.179-0.399 0.399-0.399s0.399 0.179 0.399 0.399v0 2.567c0 0.22-0.179 0.399-0.399 0.399z"></path>
<path d="M29.197 3.9c-0.22-0-0.398-0.179-0.398-0.399 0-0.11 0.045-0.21 0.117-0.282v0l1.38-1.381c0.071-0.068 0.169-0.11 0.275-0.11 0.22 0 0.399 0.179 0.399 0.399 0 0.107-0.042 0.204-0.11 0.276l-1.38 1.38c-0.075 0.075-0.176 0.117-0.282 0.117z"></path>
<path d="M29.197 3.9c-0.106 0-0.208-0.042-0.282-0.117l-1.38-1.38c-0.074-0.072-0.12-0.173-0.12-0.285 0-0.22 0.179-0.399 0.399-0.399 0.109 0 0.207 0.043 0.279 0.114l1.387 1.387c0.072 0.072 0.117 0.172 0.117 0.282 0 0.22-0.179 0.399-0.399 0.399v0zM20.717 15.805h-1.946c-1.103-0.001-1.997-0.895-1.998-1.998v-0.938c0-0.22 0.179-0.399 0.399-0.399h5.145c0.22 0 0.399 0.179 0.399 0.399v0.938c-0.001 1.103-0.895 1.997-1.998 1.998h-0zM17.571 13.267v0.539c0.001 0.663 0.538 1.2 1.2 1.201h1.946c0.663-0.001 1.2-0.538 1.201-1.201v-0.539h-4.347z"></path>
<path d="M23.077 13.97h-0.76c-0.003 0-0.008 0-0.012 0-0.22 0-0.399-0.179-0.399-0.399s0.179-0.399 0.399-0.399c0.004 0 0.008 0 0.012 0h0.759c0.215 0.007 0.387 0.183 0.387 0.399s-0.172 0.392-0.387 0.399h-0.001zM17.042 13.97h-0.76c-0.215-0.007-0.387-0.183-0.387-0.399s0.172-0.392 0.387-0.399h0.76c0.003-0 0.008-0 0.012-0 0.22 0 0.399 0.179 0.399 0.399s-0.179 0.399-0.399 0.399c-0.004 0-0.008-0-0.012-0h0.001z"></path>
<path d="M22.317 13.267h-5.145c-0.22-0-0.399-0.179-0.399-0.399 0-0.084 0.026-0.163 0.071-0.227l-0.001 0.001c0.558-0.812 1.67-1.317 2.901-1.317s2.343 0.505 2.901 1.316c0.044 0.063 0.070 0.142 0.070 0.226 0 0.22-0.178 0.399-0.399 0.399v0zM18.243 12.47h3.002c-0.438-0.218-0.955-0.346-1.501-0.346s-1.063 0.128-1.521 0.355l0.020-0.009z"></path>
<path d="M19.257 12.154c-0.098 0-0.192-0.036-0.265-0.101-0.234-0.209-0.381-0.511-0.381-0.848 0-0.626 0.507-1.133 1.133-1.133s1.133 0.507 1.133 1.133c0 0.337-0.147 0.639-0.38 0.847l-0.001 0.001c-0.071 0.067-0.168 0.109-0.274 0.109-0.22 0-0.399-0.179-0.399-0.399 0-0.122 0.055-0.232 0.142-0.305l0.001-0.001c0.070-0.062 0.114-0.152 0.114-0.252 0-0.185-0.15-0.335-0.335-0.335s-0.335 0.15-0.335 0.335c0 0.1 0.044 0.189 0.113 0.251l0 0c0.082 0.073 0.134 0.18 0.134 0.298 0 0.22-0.179 0.399-0.399 0.399-0 0-0 0-0 0h0zM4.733 16.795h-1.685c-0.22 0-0.399-0.179-0.399-0.399v0-4.285c0-0.22 0.179-0.399 0.399-0.399h1.685c0.22 0 0.399 0.179 0.399 0.399v4.285c0 0.221-0.179 0.399-0.399 0.399zM3.447 15.997h0.887v-3.487h-0.887v3.487z"></path>
<path d="M3.048 16.795h-1.685c-0.22-0-0.399-0.179-0.399-0.399v0-4.285c0-0.22 0.178-0.399 0.399-0.399h1.685c0.22 0 0.399 0.179 0.399 0.399v4.285c0 0.221-0.179 0.399-0.399 0.399zM1.762 15.997h0.887v-3.487h-0.887v3.487zM8.434 16.795h-0.752c-0.761-0.001-1.378-0.618-1.379-1.379v-1.399c0-0.22 0.178-0.399 0.399-0.399h2.712c0.221 0 0.399 0.179 0.399 0.399v1.399c-0.001 0.761-0.618 1.378-1.379 1.379h-0zM7.101 14.416v1c0 0.321 0.26 0.581 0.581 0.581h0.752c0.321-0 0.581-0.26 0.581-0.581v-1h-1.915z"></path>
<path d="M9.647 14.416h-3.179c-0.416-0.001-0.753-0.338-0.753-0.753v-0.414c0.001-0.416 0.338-0.753 0.753-0.753h3.179c0.416 0.001 0.753 0.338 0.753 0.753v0.414c-0.001 0.416-0.338 0.753-0.753 0.753h-0zM6.512 13.618h3.091v-0.325h-3.091v0.325zM26.543 16.795h-2.054c-0.22-0-0.399-0.179-0.399-0.399v0-2.807c0-0.22 0.178-0.399 0.399-0.399h2.054c0.22 0 0.399 0.178 0.399 0.399v2.807c0 0.221-0.179 0.399-0.399 0.399zM24.888 15.997h1.256v-2.009h-1.256v2.009z"></path>
<path d="M26.543 13.987h-2.054c-0.22-0-0.399-0.179-0.399-0.399v0-1.227c0-0.22 0.178-0.399 0.399-0.399h2.054c0.22 0 0.399 0.179 0.399 0.399v1.227c0 0.22-0.179 0.399-0.399 0.399zM24.888 13.189h1.256v-0.429h-1.256v0.429zM31.468 15.445c-0.652 0-1.163-0.627-1.163-1.428s0.511-1.428 1.163-1.428c0.652 0 1.162 0.627 1.162 1.428s-0.511 1.428-1.162 1.428zM31.468 13.387c-0.172 0-0.364 0.27-0.364 0.63s0.192 0.63 0.364 0.63c0.172 0 0.364-0.27 0.364-0.63s-0.192-0.63-0.364-0.63z"></path>
<path d="M31.468 13.379c-0.186 0-0.347-0.128-0.389-0.31l-0.61-2.66c-0.017-0.069-0.026-0.149-0.026-0.23 0-0.566 0.459-1.025 1.025-1.025s1.025 0.459 1.025 1.025c0 0.082-0.010 0.161-0.028 0.237l0.001-0.007-0.609 2.66c-0.042 0.181-0.203 0.31-0.389 0.31zM31.468 9.954c-0 0-0 0-0 0-0.125 0-0.227 0.101-0.227 0.227 0 0.018 0.002 0.035 0.006 0.052l-0-0.002 0.221 0.963 0.221-0.963c0.004-0.015 0.006-0.033 0.006-0.050 0-0.125-0.102-0.227-0.227-0.227-0 0-0 0-0 0v0zM28.598 13.379c-0.186 0-0.347-0.128-0.389-0.31l-0.61-2.66c-0.017-0.069-0.026-0.148-0.026-0.23 0-0.566 0.459-1.025 1.025-1.025s1.025 0.459 1.025 1.025c0 0.081-0.009 0.161-0.027 0.236l0.001-0.007-0.61 2.66c-0.042 0.181-0.203 0.31-0.389 0.31zM28.598 9.953c-0.125 0-0.227 0.102-0.227 0.227 0 0.018 0.002 0.035 0.006 0.052l-0-0.002 0.221 0.963 0.221-0.963c0.004-0.015 0.006-0.033 0.006-0.051 0-0.125-0.101-0.226-0.226-0.226-0 0-0 0-0.001 0h0z"></path>
<path d="M29.515 14.668h-1.833c-0.2-0-0.366-0.148-0.395-0.34l-0-0.002c-0.011-0.071-0.018-0.154-0.018-0.237 0-0.4 0.146-0.765 0.388-1.046l-0.002 0.002c0.258-0.297 0.601-0.468 0.943-0.468s0.685 0.17 0.943 0.468c0.24 0.279 0.386 0.644 0.386 1.044 0 0.084-0.006 0.166-0.019 0.247l0.001-0.009c-0.029 0.195-0.195 0.342-0.395 0.342v0zM28.097 13.87h1.003c-0.032-0.117-0.088-0.219-0.162-0.305l0.001 0.001c-0.101-0.117-0.235-0.193-0.34-0.193s-0.238 0.076-0.34 0.193c-0.073 0.084-0.129 0.186-0.16 0.298l-0.001 0.005z"></path>
</symbol>
<symbol id="icon-objects" viewBox="0 0 53 32">
<path fill="#44c697" style="fill: var(--color2, #44c697)" d="M13.582 12.582h24.128v-3.405h-24.128v-5.745h24.128v-3.405h-25.986c-0.864 0-1.57 0.702-1.57 1.56v16.767h3.428v-5.771z"></path>
<path fill="#1e2e36" style="fill: var(--color3, #1e2e36)" d="M41.636 0h-1.885v18.327h3.428v-16.767c0.026-0.858-0.68-1.56-1.544-1.56z"></path>
<path fill="#1e2e36" style="fill: var(--color3, #1e2e36)" d="M45.901 11.932v9.099h-38.469v-9.099h-5.469c-0.003 0-0.006-0-0.009-0-1.078 0-1.952 0.873-1.954 1.95v5.173c0 1.092 0.89 1.95 1.963 1.95h1.256l0.55 6.394v4.601h1.413l1.649-4.601h39.673l1.649 4.601h1.413v-4.601l0.55-6.395h1.256c1.099 0 1.963-0.884 1.963-1.95v-5.172c0-1.092-0.89-1.95-1.963-1.95h-5.469z"></path>
</symbol>
<symbol id="icon-shopping_cart" viewBox="0 0 31 32">
<path d="M11.613 27.291c-0.178 0-0.322 0.144-0.322 0.322s0.144 0.322 0.322 0.322v0c0.178 0 0.323-0.144 0.323-0.323s-0.144-0.323-0.323-0.323v0zM9.354 27.613c0-1.247 1.011-2.258 2.258-2.258s2.258 1.011 2.258 2.258v0c0 1.247-1.011 2.258-2.258 2.258s-2.258-1.011-2.258-2.258v0zM25.806 27.291c-0.178 0-0.322 0.144-0.322 0.322s0.144 0.322 0.322 0.322v0c0.178 0 0.323-0.144 0.323-0.323s-0.144-0.323-0.323-0.323v0zM23.548 27.613c0-1.247 1.011-2.258 2.258-2.258s2.258 1.011 2.258 2.258v0c0 1.247-1.011 2.258-2.258 2.258s-2.258-1.011-2.258-2.258v0zM0.323 1.806c0-0.535 0.434-0.967 0.967-0.967h5.161c0.461 0 0.859 0.325 0.95 0.777l1.135 5.674h21.141c0.534 0.001 0.967 0.434 0.967 0.968 0 0.064-0.006 0.126-0.018 0.187l0.001-0.006-2.065 10.833c-0.335 1.64-1.766 2.857-3.481 2.857-0.020 0-0.041-0-0.061-0l0.003 0h-12.525c-0.017 0-0.037 0-0.057 0-1.715 0-3.145-1.216-3.477-2.833l-0.004-0.023-2.158-10.778c-0.006-0.024-0.013-0.055-0.018-0.086l-0.001-0.005-1.125-5.629h-4.369c-0.535 0-0.968-0.433-0.968-0.968v0zM8.924 9.226l1.935 9.669c0.153 0.746 0.803 1.299 1.583 1.299 0.010 0 0.020-0 0.031-0l-0.002 0h12.579c0.009 0 0.020 0 0.031 0 0.779 0 1.428-0.552 1.58-1.285l0.002-0.010v-0.003l1.845-9.669h-19.584z"></path>
</symbol>
<symbol id="icon-smartphone" viewBox="0 0 32 32">
<path stroke-linejoin="round" stroke-linecap="round" stroke-miterlimit="4" stroke-width="2" d="M22.667 2.667h-13.333c-1.473 0-2.667 1.194-2.667 2.667v0 21.333c0 1.473 1.194 2.667 2.667 2.667v0h13.333c1.473 0 2.667-1.194 2.667-2.667v0-21.333c0-1.473-1.194-2.667-2.667-2.667v0zM16 24h0.013"></path>
</symbol>
<symbol id="icon-sofas" viewBox="0 0 38 32">
<path d="M17.778 30.164h-11.391c-0.948-0.001-1.716-0.769-1.717-1.717v-4.425c0.001-0.948 0.769-1.716 1.717-1.717h11.391c0.948 0.001 1.716 0.769 1.717 1.717v4.425c-0.001 0.948-0.769 1.715-1.716 1.717h-0zM6.387 23.197c-0.455 0-0.824 0.369-0.824 0.824v4.425c0 0.455 0.369 0.824 0.824 0.824h11.391c0.455-0 0.823-0.369 0.824-0.824v-4.425c-0-0.455-0.369-0.824-0.824-0.824h-11.391z"></path>
<path d="M3.846 30.164h-2.129c-0.948-0.001-1.716-0.77-1.717-1.717v-8.471c0.001-0.948 0.769-1.716 1.716-1.717h2.13c0.948 0.001 1.716 0.769 1.717 1.717v8.471c-0.001 0.948-0.769 1.716-1.717 1.717h-0zM1.717 19.151c-0.455 0.001-0.823 0.369-0.824 0.824v8.471c0.001 0.455 0.369 0.823 0.824 0.824h2.13c0.455-0.001 0.823-0.369 0.824-0.824v-8.471c-0-0.455-0.369-0.824-0.824-0.824h-2.129z"></path>
<path d="M32.979 26.681h-27.863c-0.247 0-0.446-0.2-0.446-0.446s0.2-0.446 0.446-0.446h27.863c0.247 0 0.446 0.2 0.446 0.446s-0.2 0.446-0.446 0.446v0zM17.778 23.198h-11.391c-0.948-0.001-1.716-0.769-1.717-1.716v-6.799c0.001-0.948 0.769-1.716 1.717-1.717h11.391c0.948 0.001 1.716 0.769 1.717 1.717v6.799c-0.001 0.948-0.769 1.715-1.716 1.717h-0zM6.387 13.858c-0.455 0-0.823 0.369-0.824 0.824v6.799c0 0.455 0.369 0.824 0.824 0.824h11.391c0.455-0 0.824-0.369 0.824-0.824v-6.798c-0-0.455-0.369-0.824-0.824-0.824h-11.391z"></path>
<path d="M31.709 23.198h-11.39c-0.948-0.001-1.716-0.769-1.717-1.716v-6.799c0.001-0.948 0.769-1.716 1.716-1.717h11.391c0.948 0.001 1.716 0.769 1.717 1.717v6.799c-0.001 0.948-0.769 1.716-1.717 1.717h-0zM20.318 13.858c-0.455 0-0.823 0.369-0.824 0.824v6.799c0 0.455 0.369 0.824 0.824 0.824h11.391c0.455-0 0.824-0.369 0.824-0.824v-6.798c-0-0.455-0.369-0.824-0.824-0.824h-11.391z"></path>
<path d="M31.709 30.164h-11.39c-0.948-0.001-1.716-0.769-1.717-1.717v-4.425c0.001-0.948 0.769-1.716 1.716-1.717h11.391c0.948 0.001 1.716 0.769 1.717 1.717v4.425c-0.001 0.948-0.769 1.716-1.717 1.717h-0zM20.318 23.198c-0.455 0-0.824 0.369-0.824 0.824v4.425c0 0.455 0.369 0.824 0.824 0.824h11.391c0.455-0 0.823-0.369 0.824-0.824v-4.426c-0-0.455-0.369-0.824-0.824-0.824h-11.391z"></path>
<path d="M36.379 30.164h-2.13c-0.948-0.001-1.715-0.769-1.717-1.717v-8.471c0.001-0.948 0.769-1.716 1.717-1.717h2.129c0.948 0.001 1.716 0.769 1.717 1.717v8.471c-0.001 0.948-0.769 1.715-1.716 1.717h-0zM34.249 19.152c-0.455 0.001-0.823 0.369-0.824 0.824v8.471c0.001 0.455 0.369 0.823 0.824 0.824h2.129c0.455-0 0.823-0.369 0.824-0.824v-8.471c-0-0.455-0.369-0.824-0.824-0.824h-2.129zM20.091 23.198h-2.088c-0.247 0-0.446-0.2-0.446-0.446s0.2-0.446 0.446-0.446h2.088c0.247 0 0.446 0.2 0.446 0.446s-0.2 0.446-0.446 0.446v0zM27.219 11.672h-16.343c-0.247 0-0.446-0.2-0.446-0.446v0-10.606c0-0.246 0.2-0.446 0.446-0.446h16.343c0.247 0 0.446 0.2 0.446 0.446v10.606c0 0.246-0.2 0.446-0.446 0.446zM11.323 10.779h15.45v-9.714h-15.45v9.714z"></path>
<path d="M25.732 10.185h-13.369c-0.247 0-0.446-0.2-0.446-0.446v-7.632c0-0.246 0.2-0.446 0.446-0.446h13.369c0.246 0 0.446 0.2 0.446 0.446v7.632c0 0.247-0.2 0.446-0.446 0.446zM12.81 9.292h12.476v-6.739h-12.476v6.739z"></path>
<path d="M13.963 8.549c-0.246-0-0.446-0.2-0.446-0.446 0-0.123 0.050-0.235 0.13-0.315v0l2.296-2.296c0.081-0.081 0.192-0.131 0.316-0.131s0.235 0.050 0.316 0.131l1.393 1.393c0.076 0.080 0.123 0.189 0.123 0.308 0 0.247-0.2 0.446-0.446 0.446-0.12 0-0.228-0.047-0.308-0.124l-1.077-1.077-1.98 1.98c-0.084 0.084-0.197 0.131-0.316 0.131z"></path>
<path d="M24.132 8.526c-0.118 0-0.232-0.047-0.315-0.131l-1.63-1.63c-0.616-0.616-1.214-1.213-1.811-1.811l-0.023-0.023-0.557-0.557-2.485 2.485c-0.081 0.081-0.192 0.131-0.316 0.131-0.247 0-0.447-0.2-0.447-0.447 0-0.123 0.050-0.235 0.131-0.316l2.8-2.8c0.081-0.081 0.192-0.131 0.316-0.131s0.235 0.050 0.316 0.131v0c0.197 0.198 0.388 0.389 0.579 0.579l0.006 0.006 0.287 0.286c0.611 0.611 1.222 1.223 1.834 1.834 0.543 0.544 1.086 1.087 1.63 1.63 0.081 0.081 0.131 0.192 0.131 0.315 0 0.247-0.2 0.446-0.446 0.446v0z"></path>
<path d="M22.503 6.895c-0.119 0-0.232-0.047-0.316-0.131l-1.834-1.834c-0.081-0.081-0.131-0.192-0.131-0.316 0-0.061 0.012-0.119 0.035-0.172l-0.001 0.003c0.284-0.681 0.944-1.15 1.714-1.15 1.023 0 1.852 0.829 1.852 1.852 0 0.77-0.47 1.43-1.138 1.709l-0.012 0.005c-0.053 0.022-0.111 0.034-0.169 0.034zM21.226 4.541c0.461 0.461 0.901 0.901 1.341 1.341l0.010 0.010c0.217-0.177 0.354-0.445 0.354-0.745 0-0.53-0.43-0.96-0.96-0.96-0.3 0-0.567 0.137-0.744 0.353l-0.001 0.002zM35.314 31.827c-0.001 0-0.001 0-0.002 0-0.547 0-1.007-0.375-1.136-0.882l-0.002-0.008-0.277-1.112c-0.008-0.032-0.013-0.070-0.013-0.108 0-0.247 0.2-0.446 0.446-0.446 0 0 0 0 0 0h1.967c0 0 0 0 0 0 0.247 0 0.446 0.2 0.446 0.446 0 0.038-0.005 0.076-0.014 0.111l0.001-0.003-0.277 1.112c-0.131 0.515-0.591 0.89-1.138 0.89-0.001 0-0.001 0-0.002 0h0zM34.902 30.163l0.139 0.558c0.032 0.123 0.142 0.212 0.273 0.212s0.241-0.089 0.273-0.21l0-0.002 0.139-0.558h-0.824zM2.781 31.827c-0 0-0.001 0-0.001 0-0.547 0-1.007-0.375-1.136-0.882l-0.002-0.008-0.278-1.112c-0.008-0.032-0.013-0.070-0.013-0.108 0-0.247 0.2-0.446 0.446-0.446 0 0 0 0 0 0h1.968c0.247 0 0.446 0.2 0.446 0.446 0 0.038-0.005 0.076-0.014 0.111l0.001-0.003-0.277 1.112c-0.131 0.515-0.591 0.89-1.138 0.89-0.001 0-0.001 0-0.002 0h0zM2.37 30.163l0.139 0.558c0.032 0.123 0.142 0.212 0.273 0.212s0.241-0.089 0.273-0.21l0-0.002 0.139-0.558h-0.825z"></path>
</symbol>
<symbol id="icon-telgram" viewBox="0 0 37 32">
<path d="M14.607 20.327v-0.002l15.619-14.095c0.685-0.608-0.15-0.904-1.061-0.354l-19.274 12.162-8.325-2.599c-1.799-0.551-1.812-1.785 0.404-2.675l32.441-12.51c1.482-0.674 2.914 0.354 2.346 2.624l-5.524 26.038c-0.387 1.851-1.504 2.292-3.053 1.438l-8.418-6.218-4.083 3.971c-0.455 0.44-0.827 0.803-1.647 0.803l0.573-8.586z"></path>
</symbol>
<symbol id="icon-vector_map" viewBox="0 0 27 32">
<path fill="#fff" style="fill: var(--color1, #fff)" d="M13.333 2.333c-6.075 0-11 4.925-11 11v0c0 4.264 2.765 8.355 5.725 11.48 1.596 1.671 3.32 3.191 5.166 4.553l0.108 0.076c1.955-1.439 3.679-2.959 5.26-4.615l0.015-0.015c2.96-3.125 5.725-7.216 5.725-11.48-0.001-6.075-4.925-10.999-11-10.999v0zM13.333 30.667l-0.555 0.832-0.012-0.008-0.029-0.020c-0.223-0.151-0.388-0.268-0.55-0.388l0.045 0.032c-2.087-1.529-3.925-3.146-5.61-4.912l-0.016-0.016c-3.039-3.207-6.273-7.783-6.273-12.853 0-7.18 5.82-13 13-13s13 5.82 13 13v0c0 5.069-3.235 9.645-6.275 12.853-1.7 1.782-3.538 3.4-5.509 4.848l-0.115 0.081c-0.093 0.070-0.258 0.187-0.424 0.302l-0.081 0.053-0.029 0.020-0.008 0.005-0.003 0.001s-0.001 0.001-0.556-0.831zM13.333 30.667l0.555 0.832c-0.156 0.105-0.348 0.168-0.555 0.168s-0.399-0.063-0.558-0.17l0.004 0.002 0.555-0.832z"></path>
<path fill="#fff" style="fill: var(--color1, #fff)" d="M13.333 10.333c-1.657 0-3 1.343-3 3s1.343 3 3 3v0c1.657 0 3-1.343 3-3s-1.343-3-3-3v0zM8.333 13.333c0-2.761 2.239-5 5-5s5 2.239 5 5v0c0 2.761-2.239 5-5 5s-5-2.239-5-5v0z"></path>
</symbol>
</defs>
</svg>
