<svg xmlns="http://www.w3.org/2000/svg" width="20" height="24" fill="none"><path fill="#fff" fill-rule="evenodd" d="M10 1.75A8.25 8.25 0 0 0 1.75 10c0 3.198 2.074 6.266 4.294 8.61A29.671 29.671 0 0 0 10 22.082a29.672 29.672 0 0 0 3.956-3.473c2.22-2.344 4.294-5.412 4.294-8.61A8.25 8.25 0 0 0 10 1.75ZM10 23l-.416.624-.003-.002-.006-.004-.022-.015a12.384 12.384 0 0 1-.379-.267 31.174 31.174 0 0 1-4.219-3.696C2.676 17.235.25 13.803.25 10a9.75 9.75 0 0 1 19.5 0c0 3.802-2.426 7.234-4.706 9.64a31.173 31.173 0 0 1-4.218 3.697 18.242 18.242 0 0 1-.379.266l-.022.015-.006.004-.002.001s-.001.001-.417-.623Zm0 0 .416.624a.75.75 0 0 1-.832 0L10 23Z" clip-rule="evenodd"/><path fill="#fff" fill-rule="evenodd" d="M10 7.75a2.25 2.25 0 1 0 0 4.5 2.25 2.25 0 0 0 0-4.5ZM6.25 10a3.75 3.75 0 1 1 7.5 0 3.75 3.75 0 0 1-7.5 0Z" clip-rule="evenodd"/></svg>